<?xml version="1.0" encoding="iso-8859-1"?>
<!-- Generator: Adobe Illustrator 19.0.0, SVG Export Plug-In . SVG Version: 6.00 Build 0)  -->
<svg version="1.1" id="Layer_1" xmlns="http://www.w3.org/2000/svg" xmlns:xlink="http://www.w3.org/1999/xlink" x="0px" y="0px"
	 viewBox="0 0 512 512" style="enable-background:new 0 0 512 512;" xml:space="preserve">
<g>
	<g>
		<path d="M179.2,213.333l49.067-49.067c8.533-8.533,8.533-21.333,0-29.867c-8.533-8.533-21.333-8.533-29.867,0l-64,64
			c-8.533,8.533-6.4,21.333,0,29.867l64,64c8.533,8.533,21.333,8.533,29.867,0s8.533-21.333,0-29.867L179.2,213.333z"/>
	</g>
</g>
<g>
	<g>
		<path d="M377.6,198.4l-64-64c-8.533-8.533-21.333-8.533-29.867,0c-8.533,8.533-8.533,21.333,0,29.867l49.067,49.067L283.733,262.4
			c-8.533,8.533-8.533,21.333,0,29.867s21.333,8.533,29.867,0l64-64C386.133,219.733,386.133,206.933,377.6,198.4z"/>
	</g>
</g>
<g>
	<g>
		<path d="M490.667,341.333H320c-6.4,0-10.667,2.133-14.933,6.4l-14.933,14.933h-68.267l-14.933-14.933
			c-4.267-4.267-8.533-6.4-14.933-6.4H21.333C8.533,341.333,0,349.867,0,362.667v64c0,23.467,19.2,42.667,42.667,42.667h426.667
			c23.467,0,42.667-19.2,42.667-42.667v-64C512,349.867,503.467,341.333,490.667,341.333z M469.333,426.667H42.667V384h140.8
			l14.933,14.933c4.267,4.267,8.533,6.4,14.933,6.4h85.333c6.4,0,10.667-2.133,14.933-6.4L328.533,384h140.8V426.667z"/>
	</g>
</g>
<g>
	<g>
		<path d="M448,42.667H64c-23.467,0-42.667,19.2-42.667,42.667v277.333c0,12.8,8.533,21.333,21.333,21.333h140.8l14.933,14.933
			c4.267,4.267,8.533,6.4,14.933,6.4h85.333c6.4,0,10.667-2.133,14.933-6.4L328.533,384h140.8c12.8,0,21.333-8.533,21.333-21.333
			V85.333C490.667,61.867,471.467,42.667,448,42.667z M448,341.333H320c-6.4,0-10.667,2.133-14.933,6.4l-14.933,14.933h-68.267
			l-14.933-14.933c-4.267-4.267-8.533-6.4-14.933-6.4H64v-256h384V341.333z"/>
	</g>
</g>
<g>
</g>
<g>
</g>
<g>
</g>
<g>
</g>
<g>
</g>
<g>
</g>
<g>
</g>
<g>
</g>
<g>
</g>
<g>
</g>
<g>
</g>
<g>
</g>
<g>
</g>
<g>
</g>
<g>
</g>
</svg>
