<svg width="184" height="184" xmlns="http://www.w3.org/2000/svg">

 <g>
  <title>Layer 1</title>
  <ellipse stroke-width="5" ry="50" rx="50" id="svg_1" cy="92" cx="92" stroke-opacity="1" fill="black"/>
  <ellipse stroke="#4f0147" stroke-width="5" ry="27" rx="27" id="svg_2" cy="91.62264" cx="42" stroke-opacity="1" fill="black"/>
  <ellipse stroke-width="5" ry="13" rx="13" id="svg_3" cy="92" cx="15" stroke="#4f0147" stroke-opacity="1" fill="black"/>
  <ellipse stroke-width="5" ry="13" rx="13" id="svg_4" cy="62.51361" cx="42" stroke="#4f0147" stroke-opacity="1" fill="black"/>
  <ellipse stroke-width="5" ry="13" rx="13" id="svg_5" cy="120.62264" cx="42" stroke="#4f0147" stroke-opacity="1" fill="black"/>
  <ellipse stroke="#4f0147" stroke-width="5" ry="27" rx="27" id="svg_6" cy="92" cx="142.37736" stroke-opacity="1" fill="black"/>
  <ellipse stroke-width="5" ry="13" rx="13" id="svg_7" cy="62.89097" cx="142" stroke="#4f0147" stroke-opacity="1" fill="black"/>
  <ellipse stroke-width="5" ry="13" rx="13" id="svg_10" cy="92.37736" cx="169" stroke="#4f0147" stroke-opacity="1" fill="black"/>
  <ellipse stroke-width="5" ry="13" rx="13" id="svg_11" cy="120.62264" cx="142" stroke="#4f0147" stroke-opacity="1" fill="black"/>
  <ellipse stroke="#4f0147" stroke-width="5" ry="27" rx="27" id="svg_12" cy="42" cx="92" stroke-opacity="1" fill="black"/>
  <ellipse stroke="#4f0147" stroke-width="5" ry="27" rx="27" id="svg_13" cy="142" cx="92" stroke-opacity="1" fill="black"/>
  <ellipse stroke-width="5" ry="13" rx="13" id="svg_15" cy="15" cx="92" stroke="#4f0147" stroke-opacity="1" fill="black"/>
  <ellipse stroke-width="5" ry="13" rx="13" id="svg_16" cy="169" cx="92" stroke="#4f0147" stroke-opacity="1" fill="black"/>
  <ellipse stroke-width="5" ry="13" rx="13" id="svg_17" cy="142" cx="119" stroke="#4f0147" stroke-opacity="1" fill="black"/>
  <ellipse stroke-width="5" ry="13" rx="13" id="svg_18" cy="42" cx="65" stroke="#4f0147" stroke-opacity="1" fill="black"/>
  <ellipse stroke-width="5" ry="13" rx="13" id="svg_19" cy="42" cx="119.37736" stroke="#4f0147" stroke-opacity="1" fill="black"/>
  <ellipse stroke-width="5" ry="13" rx="13" id="svg_20" cy="142" cx="65" stroke="#4f0147" stroke-opacity="1" fill="black"/>
 </g>
</svg>