<?xml version="1.0" encoding="UTF-8" standalone="no"?> <svg width="64" height="64" viewBox="0 0 64 64" fill="none" xmlns="http://www.w3.org/2000/svg">
<path d="M59 27C59.5505 27.0023 60.091 26.853 60.5624 26.5686C61.0337 26.2842 61.4177 25.8755 61.6723 25.3874C61.9269 24.8993 62.0423 24.3505 62.0058 23.8012C61.9693 23.2519 61.7824 22.7232 61.4655 22.2731C61.1486 21.8229 60.7139 21.4686 60.2091 21.249C59.7042 21.0294 59.1487 20.953 58.6033 21.0281C58.058 21.1031 57.5438 21.3268 57.117 21.6746C56.6903 22.0224 56.3675 22.481 56.184 23H52.055C51.0281 20.7221 49.6233 18.6343 47.9 16.825L49.46 15H52.184C52.4199 15.6672 52.8841 16.2296 53.4945 16.5876C54.1049 16.9457 54.8222 17.0765 55.5197 16.9568C56.2172 16.8371 56.85 16.4747 57.3061 15.9337C57.7622 15.3926 58.0124 14.7077 58.0124 14C58.0124 13.2923 57.7622 12.6074 57.3061 12.0663C56.85 11.5253 56.2172 11.1629 55.5197 11.0432C54.8222 10.9235 54.1049 11.0543 53.4945 11.4124C52.8841 11.7705 52.4199 12.3328 52.184 13H49C48.8555 13 48.7128 13.0313 48.5816 13.0917C48.4504 13.1521 48.3339 13.2402 48.24 13.35L46.447 15.443C45.907 14.971 45.347 14.518 44.761 14.097C44.6545 14.0152 44.5326 13.9557 44.4026 13.922C44.2726 13.8884 44.1372 13.8812 44.0044 13.901C43.8716 13.9208 43.7441 13.9672 43.6296 14.0373C43.5151 14.1074 43.4158 14.1999 43.3379 14.3092C43.2599 14.4185 43.2047 14.5424 43.1756 14.6735C43.1465 14.8046 43.1441 14.9402 43.1686 15.0723C43.1931 15.2043 43.2439 15.33 43.318 15.442C43.3921 15.554 43.488 15.6499 43.6 15.724C46.1974 17.5708 48.3153 20.0122 49.7768 22.8444C51.2382 25.6767 52.0008 28.8175 52.0008 32.0045C52.0008 35.1916 51.2382 38.3323 49.7768 41.1646C48.3153 43.9968 46.1974 46.4382 43.6 48.285C43.3838 48.4388 43.2376 48.6722 43.1936 48.9338C43.1495 49.1955 43.2112 49.4639 43.365 49.68C43.5188 49.8962 43.7522 50.0424 44.0138 50.0864C44.2754 50.1305 44.5438 50.0688 44.76 49.915C45.352 49.494 45.913 49.039 46.46 48.566L48.24 50.65C48.3339 50.7598 48.4504 50.8479 48.5816 50.9083C48.7128 50.9687 48.8555 51 49 51H52.184C52.4199 51.6672 52.8841 52.2296 53.4945 52.5876C54.1049 52.9457 54.8222 53.0765 55.5197 52.9568C56.2172 52.8371 56.85 52.4747 57.3061 51.9337C57.7622 51.3926 58.0124 50.7077 58.0124 50C58.0124 49.2923 57.7622 48.6074 57.3061 48.0663C56.85 47.5253 56.2172 47.1629 55.5197 47.0432C54.8222 46.9235 54.1049 47.0543 53.4945 47.4124C52.8841 47.7705 52.4199 48.3328 52.184 49H49.46L47.905 47.184C49.6326 45.3738 51.0394 43.2825 52.065 41H56.184C56.4199 41.6672 56.8841 42.2296 57.4945 42.5876C58.1049 42.9457 58.8222 43.0765 59.5197 42.9568C60.2172 42.8371 60.85 42.4747 61.3061 41.9337C61.7622 41.3926 62.0124 40.7077 62.0124 40C62.0124 39.2923 61.7622 38.6074 61.3061 38.0663C60.85 37.5253 60.2172 37.1629 59.5197 37.0432C58.8222 36.9235 58.1049 37.0543 57.4945 37.4124C56.8841 37.7705 56.4199 38.3328 56.184 39H52.842C54.388 34.461 54.3859 29.5376 52.836 25H56.184C56.3901 25.5829 56.7712 26.0879 57.2753 26.4459C57.7794 26.8039 58.3817 26.9974 59 27V27ZM55 13C55.1978 13 55.3911 13.0587 55.5556 13.1685C55.72 13.2784 55.8482 13.4346 55.9239 13.6173C55.9996 13.8 56.0194 14.0011 55.9808 14.1951C55.9422 14.3891 55.847 14.5673 55.7071 14.7071C55.5672 14.847 55.3891 14.9422 55.1951 14.9808C55.0011 15.0194 54.8 14.9996 54.6173 14.9239C54.4346 14.8482 54.2784 14.72 54.1685 14.5556C54.0586 14.3911 54 14.1978 54 14C54 13.7348 54.1053 13.4804 54.2929 13.2929C54.4804 13.1054 54.7348 13 55 13ZM55 49C55.1978 49 55.3911 49.0587 55.5556 49.1685C55.72 49.2784 55.8482 49.4346 55.9239 49.6173C55.9996 49.8001 56.0194 50.0011 55.9808 50.1951C55.9422 50.3891 55.847 50.5673 55.7071 50.7071C55.5672 50.847 55.3891 50.9422 55.1951 50.9808C55.0011 51.0194 54.8 50.9996 54.6173 50.9239C54.4346 50.8482 54.2784 50.72 54.1685 50.5556C54.0586 50.3911 54 50.1978 54 50C54 49.7348 54.1053 49.4804 54.2929 49.2929C54.4804 49.1054 54.7348 49 55 49ZM59 39C59.1978 39 59.3911 39.0587 59.5556 39.1685C59.72 39.2784 59.8482 39.4346 59.9239 39.6173C59.9996 39.8 60.0194 40.0011 59.9808 40.1951C59.9422 40.3891 59.847 40.5673 59.7071 40.7071C59.5672 40.847 59.3891 40.9422 59.1951 40.9808C59.0011 41.0194 58.8 40.9996 58.6173 40.9239C58.4346 40.8482 58.2784 40.72 58.1685 40.5556C58.0586 40.3911 58 40.1978 58 40C58 39.7348 58.1053 39.4804 58.2929 39.2929C58.4804 39.1054 58.7348 39 59 39ZM59 23C59.1978 23 59.3911 23.0587 59.5556 23.1685C59.72 23.2784 59.8482 23.4346 59.9239 23.6173C59.9996 23.8 60.0194 24.0011 59.9808 24.1951C59.9422 24.3891 59.847 24.5673 59.7071 24.7071C59.5672 24.847 59.3891 24.9422 59.1951 24.9808C59.0011 25.0194 58.8 24.9996 58.6173 24.9239C58.4346 24.8482 58.2784 24.72 58.1685 24.5556C58.0586 24.3911 58 24.1978 58 24C58 23.7348 58.1053 23.4804 58.2929 23.2929C58.4804 23.1054 58.7348 23 59 23Z" fill="black"/>
<path d="M59 56C58.3817 56.0026 57.7794 56.1961 57.2753 56.5541C56.7712 56.9121 56.3901 57.4171 56.184 58H43.5L39.5 52.678C40.049 52.478 40.594 52.264 41.131 52.02C41.3664 51.9065 41.548 51.7053 41.6369 51.4596C41.7258 51.2138 41.715 50.9431 41.6068 50.7052C41.4986 50.4673 41.3016 50.2813 41.0579 50.1869C40.8142 50.0924 40.5432 50.0972 40.303 50.2C37.5856 51.4381 34.6254 52.052 31.6397 51.9966C28.654 51.9411 25.7186 51.2178 23.049 49.8798C20.3794 48.5417 18.0433 46.6228 16.2122 44.2639C14.3811 41.905 13.1014 39.166 12.4672 36.2479C11.8329 33.3299 11.8602 30.3068 12.5469 27.4007C13.2336 24.4945 14.5624 21.779 16.4357 19.4535C18.309 17.128 20.6793 15.2515 23.3726 13.9617C26.0659 12.6719 29.0138 12.0016 32 12C34.8633 11.9962 37.693 12.6166 40.292 13.818C40.4114 13.8729 40.5404 13.9037 40.6717 13.9088C40.803 13.9138 40.934 13.8929 41.0572 13.8473C41.1804 13.8017 41.2935 13.7323 41.3899 13.643C41.4862 13.5538 41.5641 13.4464 41.619 13.327C41.6739 13.2076 41.7047 13.0786 41.7098 12.9473C41.7148 12.816 41.6939 12.685 41.6483 12.5618C41.6027 12.4386 41.5333 12.3256 41.444 12.2292C41.3548 12.1328 41.2474 12.0549 41.128 12C40.59 11.752 40.043 11.535 39.493 11.333L43.5 6.00001H56.184C56.4199 6.66722 56.8841 7.22956 57.4945 7.58764C58.1049 7.94572 58.8222 8.07647 59.5197 7.9568C60.2172 7.83713 60.85 7.47474 61.3061 6.93367C61.7623 6.3926 62.0124 5.70769 62.0124 5.00001C62.0124 4.29232 61.7623 3.60741 61.3061 3.06635C60.85 2.52528 60.2172 2.16288 59.5197 2.04321C58.8222 1.92354 58.1049 2.0543 57.4945 2.41237C56.8841 2.77045 56.4199 3.33279 56.184 4.00001H43C42.8448 4.00001 42.6917 4.03615 42.5528 4.10558C42.4139 4.17501 42.2932 4.27581 42.2 4.40001L37.468 10.7C35.6825 10.2354 33.845 10.0001 32 10C30.1533 9.99896 28.3137 10.2308 26.525 10.69L21.8 4.40001C21.7069 4.27581 21.5861 4.17501 21.4472 4.10558C21.3084 4.03615 21.1553 4.00001 21 4.00001H7.81601C7.58011 3.33279 7.11594 2.77045 6.50553 2.41237C5.89512 2.0543 5.17777 1.92354 4.48027 2.04321C3.78278 2.16288 3.15004 2.52528 2.6939 3.06635C2.23776 3.60741 1.98758 4.29232 1.98758 5.00001C1.98758 5.70769 2.23776 6.3926 2.6939 6.93367C3.15004 7.47474 3.78278 7.83713 4.48027 7.9568C5.17777 8.07647 5.89512 7.94572 6.50553 7.58764C7.11594 7.22956 7.58011 6.66722 7.81601 6.00001H20.5L24.5 11.319C21.9495 12.2509 19.5932 13.6464 17.55 15.435L15.759 13.35C15.6652 13.2404 15.5488 13.1523 15.4178 13.0919C15.2868 13.0315 15.1443 13.0001 15 13H11.816C11.5801 12.3328 11.1159 11.7705 10.5055 11.4124C9.89512 11.0543 9.17777 10.9235 8.48027 11.0432C7.78278 11.1629 7.15004 11.5253 6.6939 12.0663C6.23776 12.6074 5.98758 13.2923 5.98758 14C5.98758 14.7077 6.23776 15.3926 6.6939 15.9337C7.15004 16.4747 7.78278 16.8371 8.48027 16.9568C9.17777 17.0765 9.89512 16.9457 10.5055 16.5876C11.1159 16.2296 11.5801 15.6672 11.816 15H14.54L16.1 16.82C14.3708 18.629 12.9617 20.7187 11.933 23H7.81601C7.58011 22.3328 7.11594 21.7705 6.50553 21.4124C5.89512 21.0543 5.17777 20.9235 4.48027 21.0432C3.78278 21.1629 3.15004 21.5253 2.6939 22.0663C2.23776 22.6074 1.98758 23.2923 1.98758 24C1.98758 24.7077 2.23776 25.3926 2.6939 25.9337C3.15004 26.4747 3.78278 26.8371 4.48027 26.9568C5.17777 27.0765 5.89512 26.9457 6.50553 26.5876C7.11594 26.2296 7.58011 25.6672 7.81601 25H11.148C9.61731 29.5412 9.61731 34.4589 11.148 39H7.81601C7.58011 38.3328 7.11594 37.7705 6.50553 37.4124C5.89512 37.0543 5.17777 36.9235 4.48027 37.0432C3.78278 37.1629 3.15004 37.5253 2.6939 38.0663C2.23776 38.6074 1.98758 39.2923 1.98758 40C1.98758 40.7077 2.23776 41.3926 2.6939 41.9337C3.15004 42.4747 3.78278 42.8371 4.48027 42.9568C5.17777 43.0765 5.89512 42.9457 6.50553 42.5876C7.11594 42.2296 7.58011 41.6672 7.81601 41H11.933C12.9617 43.2813 14.3708 45.3711 16.1 47.18L14.54 49H11.816C11.5801 48.3328 11.1159 47.7705 10.5055 47.4124C9.89512 47.0543 9.17777 46.9235 8.48027 47.0432C7.78278 47.1629 7.15004 47.5253 6.6939 48.0663C6.23776 48.6074 5.98758 49.2923 5.98758 50C5.98758 50.7077 6.23776 51.3926 6.6939 51.9337C7.15004 52.4747 7.78278 52.8371 8.48027 52.9568C9.17777 53.0765 9.89512 52.9457 10.5055 52.5876C11.1159 52.2296 11.5801 51.6672 11.816 51H15C15.1443 50.9999 15.2868 50.9685 15.4178 50.9081C15.5488 50.8477 15.6652 50.7596 15.759 50.65L17.546 48.565C19.5892 50.3536 21.9455 51.7491 24.496 52.681L20.5 58H7.81601C7.58011 57.3328 7.11594 56.7705 6.50553 56.4124C5.89512 56.0543 5.17777 55.9235 4.48027 56.0432C3.78278 56.1629 3.15004 56.5253 2.6939 57.0663C2.23776 57.6074 1.98758 58.2923 1.98758 59C1.98758 59.7077 2.23776 60.3926 2.6939 60.9337C3.15004 61.4747 3.78278 61.8371 4.48027 61.9568C5.17777 62.0765 5.89512 61.9457 6.50553 61.5876C7.11594 61.2296 7.58011 60.6672 7.81601 60H21C21.1553 60 21.3084 59.9639 21.4472 59.8944C21.5861 59.825 21.7069 59.7242 21.8 59.6L26.525 53.309C30.1161 54.231 33.8819 54.231 37.473 53.309L42.2 59.6C42.2932 59.7242 42.4139 59.825 42.5528 59.8944C42.6917 59.9639 42.8448 60 43 60H56.184C56.3682 60.5172 56.6911 60.9738 57.1172 61.3199C57.5434 61.666 58.0565 61.8883 58.6005 61.9625C59.1444 62.0367 59.6983 61.96 60.2016 61.7407C60.705 61.5214 61.1383 61.168 61.4543 60.7191C61.7704 60.2702 61.9569 59.743 61.9937 59.1952C62.0304 58.6475 61.9158 58.1001 61.6625 57.6131C61.4092 57.126 61.0268 56.7179 60.5573 56.4334C60.0877 56.149 59.549 55.999 59 56V56ZM59 4.00001C59.1978 4.00001 59.3911 4.05866 59.5556 4.16854C59.72 4.27842 59.8482 4.4346 59.9239 4.61732C59.9996 4.80005 60.0194 5.00112 59.9808 5.1951C59.9422 5.38908 59.847 5.56726 59.7071 5.70711C59.5673 5.84697 59.3891 5.94221 59.1951 5.98079C59.0011 6.01938 58.8001 5.99957 58.6173 5.92389C58.4346 5.8482 58.2784 5.72003 58.1685 5.55558C58.0587 5.39113 58 5.19779 58 5.00001C58 4.73479 58.1054 4.48044 58.2929 4.2929C58.4804 4.10536 58.7348 4.00001 59 4.00001V4.00001ZM5.00001 6.00001C4.80223 6.00001 4.60889 5.94136 4.44444 5.83148C4.27999 5.72159 4.15181 5.56542 4.07613 5.38269C4.00044 5.19996 3.98064 4.9989 4.01922 4.80492C4.05781 4.61093 4.15305 4.43275 4.2929 4.2929C4.43275 4.15305 4.61094 4.05781 4.80492 4.01922C4.9989 3.98064 5.19996 4.00044 5.38269 4.07613C5.56542 4.15181 5.72159 4.27999 5.83148 4.44444C5.94136 4.60889 6.00001 4.80222 6.00001 5.00001C6.00001 5.26522 5.89465 5.51958 5.70711 5.70711C5.51958 5.89465 5.26522 6.00001 5.00001 6.00001ZM9.00001 15C8.80223 15 8.60889 14.9414 8.44444 14.8315C8.27999 14.7216 8.15181 14.5654 8.07613 14.3827C8.00044 14.2 7.98064 13.9989 8.01922 13.8049C8.05781 13.6109 8.15305 13.4328 8.2929 13.2929C8.43275 13.153 8.61094 13.0578 8.80492 13.0192C8.9989 12.9806 9.19996 13.0004 9.38269 13.0761C9.56542 13.1518 9.72159 13.28 9.83148 13.4444C9.94136 13.6089 10 13.8022 10 14C10 14.2652 9.89465 14.5196 9.70711 14.7071C9.51958 14.8946 9.26522 15 9.00001 15ZM5.00001 25C4.80223 25 4.60889 24.9414 4.44444 24.8315C4.27999 24.7216 4.15181 24.5654 4.07613 24.3827C4.00044 24.2 3.98064 23.9989 4.01922 23.8049C4.05781 23.6109 4.15305 23.4328 4.2929 23.2929C4.43275 23.153 4.61094 23.0578 4.80492 23.0192C4.9989 22.9806 5.19996 23.0004 5.38269 23.0761C5.56542 23.1518 5.72159 23.28 5.83148 23.4444C5.94136 23.6089 6.00001 23.8022 6.00001 24C6.00001 24.2652 5.89465 24.5196 5.70711 24.7071C5.51958 24.8946 5.26522 25 5.00001 25ZM5.00001 41C4.80223 41 4.60889 40.9414 4.44444 40.8315C4.27999 40.7216 4.15181 40.5654 4.07613 40.3827C4.00044 40.2 3.98064 39.9989 4.01922 39.8049C4.05781 39.6109 4.15305 39.4328 4.2929 39.2929C4.43275 39.153 4.61094 39.0578 4.80492 39.0192C4.9989 38.9806 5.19996 39.0004 5.38269 39.0761C5.56542 39.1518 5.72159 39.28 5.83148 39.4444C5.94136 39.6089 6.00001 39.8022 6.00001 40C6.00001 40.2652 5.89465 40.5196 5.70711 40.7071C5.51958 40.8947 5.26522 41 5.00001 41ZM9.00001 51C8.80223 51 8.60889 50.9414 8.44444 50.8315C8.27999 50.7216 8.15181 50.5654 8.07613 50.3827C8.00044 50.2 7.98064 49.9989 8.01922 49.8049C8.05781 49.6109 8.15305 49.4328 8.2929 49.2929C8.43275 49.153 8.61094 49.0578 8.80492 49.0192C8.9989 48.9806 9.19996 49.0004 9.38269 49.0761C9.56542 49.1518 9.72159 49.28 9.83148 49.4444C9.94136 49.6089 10 49.8022 10 50C10 50.2652 9.89465 50.5196 9.70711 50.7071C9.51958 50.8947 9.26522 51 9.00001 51ZM5.00001 60C4.80223 60 4.60889 59.9414 4.44444 59.8315C4.27999 59.7216 4.15181 59.5654 4.07613 59.3827C4.00044 59.2 3.98064 58.9989 4.01922 58.8049C4.05781 58.6109 4.15305 58.4328 4.2929 58.2929C4.43275 58.153 4.61094 58.0578 4.80492 58.0192C4.9989 57.9806 5.19996 58.0004 5.38269 58.0761C5.56542 58.1518 5.72159 58.28 5.83148 58.4444C5.94136 58.6089 6.00001 58.8022 6.00001 59C6.00001 59.2652 5.89465 59.5196 5.70711 59.7071C5.51958 59.8947 5.26522 60 5.00001 60ZM59 60C58.8022 60 58.6089 59.9414 58.4444 59.8315C58.28 59.7216 58.1518 59.5654 58.0761 59.3827C58.0004 59.2 57.9806 58.9989 58.0192 58.8049C58.0578 58.6109 58.153 58.4328 58.2929 58.2929C58.4328 58.153 58.6109 58.0578 58.8049 58.0192C58.9989 57.9806 59.2 58.0004 59.3827 58.0761C59.5654 58.1518 59.7216 58.28 59.8315 58.4444C59.9414 58.6089 60 58.8022 60 59C60 59.2652 59.8947 59.5196 59.7071 59.7071C59.5196 59.8947 59.2652 60 59 60Z" fill="black"/>
<path d="M19 33C19.5523 33 20 32.5523 20 32C20 31.4477 19.5523 31 19 31C18.4477 31 18 31.4477 18 32C18 32.5523 18.4477 33 19 33Z" fill="black"/>
<path d="M45 33C45.5523 33 46 32.5523 46 32C46 31.4477 45.5523 31 45 31C44.4477 31 44 31.4477 44 32C44 32.5523 44.4477 33 45 33Z" fill="black"/>
<path d="M20.7 44.723C20.5372 44.931 20.4632 45.1949 20.4943 45.4572C20.5254 45.7195 20.659 45.9589 20.866 46.123C24.0295 48.642 27.9561 50.0093 32 50C35.5601 50 39.0402 48.9443 42.0003 46.9665C44.9603 44.9886 47.2675 42.1774 48.6298 38.8883C49.9922 35.5992 50.3487 31.98 49.6541 28.4884C48.9596 24.9967 47.2453 21.7894 44.7279 19.2721C42.2106 16.7547 39.0033 15.0404 35.5116 14.3459C32.02 13.6513 28.4008 14.0078 25.1117 15.3702C21.8226 16.7326 19.0114 19.0397 17.0335 21.9997C15.0557 24.9598 14 28.4399 14 32C13.9898 36.0431 15.3556 39.9693 17.873 43.133C17.9543 43.2361 18.0552 43.3221 18.1698 43.3863C18.2844 43.4504 18.4105 43.4913 18.541 43.5066C18.6714 43.522 18.8036 43.5115 18.9299 43.4758C19.0563 43.4401 19.1744 43.3799 19.2775 43.2985C19.3806 43.2172 19.4666 43.1163 19.5307 43.0017C19.5949 42.8871 19.6358 42.761 19.6511 42.6305C19.6665 42.5001 19.656 42.3679 19.6203 42.2416C19.5846 42.1152 19.5244 41.9971 19.443 41.894C17.2052 39.0826 15.9909 35.5933 16 32C16 28.8355 16.9384 25.7421 18.6965 23.1109C20.4546 20.4797 22.9534 18.4289 25.8771 17.2179C28.8007 16.0069 32.0177 15.6901 35.1214 16.3074C38.2251 16.9248 41.0761 18.4487 43.3137 20.6863C45.5513 22.9239 47.0752 25.7749 47.6926 28.8786C48.3099 31.9823 47.9931 35.1993 46.7821 38.1229C45.5711 41.0466 43.5203 43.5454 40.8891 45.3035C38.2579 47.0616 35.1645 48 32 48C28.4067 48.0091 24.9174 46.7948 22.106 44.557C22.0028 44.4754 21.8846 44.415 21.7581 44.3792C21.6315 44.3434 21.4992 44.3329 21.3686 44.3484C21.238 44.3638 21.1117 44.4048 20.997 44.4691C20.8822 44.5334 20.7813 44.6197 20.7 44.723V44.723Z" fill="black"/>
<path d="M22.77 27.027C22.5508 27.0788 22.3556 27.2031 22.2158 27.3797C22.0761 27.5562 22 27.7748 22 28V36C22 36.2652 22.1054 36.5196 22.2929 36.7071C22.4804 36.8947 22.7348 37 23 37C23.2652 37 23.5196 36.8947 23.7071 36.7071C23.8946 36.5196 24 36.2652 24 36V32.236L26.105 36.447C26.2056 36.6488 26.3714 36.8107 26.5755 36.9064C26.7797 37.0021 27.0101 37.026 27.2296 36.9742C27.449 36.9225 27.6445 36.7981 27.7844 36.6212C27.9242 36.4444 28.0002 36.2255 28 36V28C28 27.7348 27.8946 27.4804 27.7071 27.2929C27.5196 27.1054 27.2652 27 27 27C26.7348 27 26.4804 27.1054 26.2929 27.2929C26.1054 27.4804 26 27.7348 26 28V31.764L23.9 27.553C23.799 27.3504 23.6322 27.188 23.427 27.0924C23.2217 26.9969 22.9901 26.9738 22.77 27.027Z" fill="black"/>
<path d="M35 29C35.2652 29 35.5196 28.8946 35.7071 28.7071C35.8946 28.5196 36 28.2652 36 28C36 27.7348 35.8946 27.4804 35.7071 27.2929C35.5196 27.1054 35.2652 27 35 27H31C30.7348 27 30.4804 27.1054 30.2929 27.2929C30.1054 27.4804 30 27.7348 30 28V36C30 36.2652 30.1054 36.5196 30.2929 36.7071C30.4804 36.8946 30.7348 37 31 37C31.2652 37 31.5196 36.8946 31.7071 36.7071C31.8946 36.5196 32 36.2652 32 36V33H34C34.2652 33 34.5196 32.8946 34.7071 32.7071C34.8946 32.5196 35 32.2652 35 32C35 31.7348 34.8946 31.4804 34.7071 31.2929C34.5196 31.1054 34.2652 31 34 31H32V29H35Z" fill="black"/>
<path d="M43 27H39C38.7348 27 38.4804 27.1054 38.2929 27.2929C38.1054 27.4804 38 27.7348 38 28C38 28.2652 38.1054 28.5196 38.2929 28.7071C38.4804 28.8946 38.7348 29 39 29H40V36C40 36.2652 40.1054 36.5196 40.2929 36.7071C40.4804 36.8946 40.7348 37 41 37C41.2652 37 41.5196 36.8946 41.7071 36.7071C41.8946 36.5196 42 36.2652 42 36V29H43C43.2652 29 43.5196 28.8946 43.7071 28.7071C43.8946 28.5196 44 28.2652 44 28C44 27.7348 43.8946 27.4804 43.7071 27.2929C43.5196 27.1054 43.2652 27 43 27Z" fill="black"/>
<path d="M32.555 19.168C32.3907 19.0584 32.1975 18.9999 32 18.9999C31.8025 18.9999 31.6093 19.0584 31.445 19.168L25.445 23.168C25.3357 23.2409 25.2419 23.3346 25.1689 23.4437C25.0958 23.5529 25.045 23.6754 25.0192 23.8042C24.9935 23.933 24.9934 24.0656 25.0189 24.1944C25.0445 24.3232 25.0951 24.4458 25.168 24.555C25.2409 24.6643 25.3346 24.7581 25.4437 24.8312C25.5529 24.9042 25.6753 24.9551 25.8041 24.9808C25.9329 25.0065 26.0655 25.0066 26.1944 24.9811C26.3232 24.9556 26.4457 24.9049 26.555 24.832L32 21.2L37.445 24.83C37.5543 24.9029 37.6768 24.9536 37.8056 24.9791C37.9345 25.0046 38.0671 25.0045 38.1959 24.9788C38.3247 24.9531 38.4471 24.9022 38.5563 24.8292C38.6654 24.7561 38.7591 24.6623 38.832 24.553C38.9049 24.4438 38.9555 24.3212 38.9811 24.1924C39.0066 24.0636 39.0065 23.931 38.9808 23.8022C38.955 23.6734 38.9042 23.5509 38.8311 23.4417C38.7581 23.3326 38.6643 23.2389 38.555 23.166L32.555 19.168Z" fill="black"/>
<path d="M25.168 39.445C25.0951 39.5543 25.0444 39.6768 25.0189 39.8056C24.9934 39.9345 24.9935 40.0671 25.0192 40.1959C25.0449 40.3247 25.0957 40.4472 25.1688 40.5563C25.2419 40.6655 25.3357 40.7591 25.445 40.832L31.445 44.832C31.6093 44.9416 31.8024 45.0002 32 45.0002C32.1975 45.0002 32.3907 44.9416 32.555 44.832L38.555 40.832C38.7757 40.6848 38.9288 40.456 38.9807 40.1959C39.0327 39.9358 38.9792 39.6657 38.832 39.445C38.6848 39.2243 38.456 39.0712 38.1959 39.0192C37.9357 38.9673 37.6657 39.0208 37.445 39.168L32 42.8L26.555 39.17C26.3346 39.0226 26.0646 38.9687 25.8045 39.0203C25.5444 39.0719 25.3155 39.2246 25.168 39.445V39.445Z" fill="black"/>
</svg>
