<svg xmlns="http://www.w3.org/2000/svg" width="246.04999999999998" height="35" viewBox="0 0 246.04999999999998 35"><rect class="svg__rect" x="0" y="0" width="98.22999999999999" height="35" fill="#31C4F3"/><rect class="svg__rect" x="96.22999999999999" y="0" width="149.82" height="35" fill="#389AD5"/><path class="svg__text" d="M16.51 22L13.46 13.47L15.08 13.47L17.22 20.14L19.39 13.47L21.02 13.47L17.95 22L16.51 22ZM30.55 22L24.97 22L24.97 13.47L30.51 13.47L30.51 14.66L26.45 14.66L26.45 17.02L29.96 17.02L29.96 18.19L26.45 18.19L26.45 20.82L30.55 20.82L30.55 22ZM36.23 22L34.74 22L34.74 13.47L37.74 13.47Q39.22 13.47 40.02 14.13Q40.82 14.79 40.82 16.05L40.82 16.05Q40.82 16.90 40.41 17.48Q40.00 18.06 39.26 18.37L39.26 18.37L41.18 21.92L41.18 22L39.59 22L37.88 18.71L36.23 18.71L36.23 22ZM36.23 14.66L36.23 17.52L37.75 17.52Q38.50 17.52 38.92 17.15Q39.34 16.77 39.34 16.11L39.34 16.11Q39.34 15.43 38.95 15.05Q38.56 14.68 37.79 14.66L37.79 14.66L36.23 14.66ZM46.78 22L45.31 22L45.31 13.47L46.78 13.47L46.78 22ZM53.08 22L51.59 22L51.59 13.47L57.01 13.47L57.01 14.66L53.08 14.66L53.08 17.20L56.51 17.20L56.51 18.38L53.08 18.38L53.08 22ZM62.74 22L61.26 22L61.26 13.47L62.74 13.47L62.74 22ZM73.13 22L67.55 22L67.55 13.47L73.09 13.47L73.09 14.66L69.03 14.66L69.03 17.02L72.54 17.02L72.54 18.19L69.03 18.19L69.03 20.82L73.13 20.82L73.13 22ZM79.78 22L77.32 22L77.32 13.47L79.84 13.47Q80.97 13.47 81.85 13.97Q82.72 14.48 83.21 15.40Q83.69 16.33 83.69 17.52L83.69 17.52L83.69 17.95Q83.69 19.16 83.20 20.08Q82.72 21.00 81.83 21.50Q80.93 22 79.78 22L79.78 22ZM78.81 14.66L78.81 20.82L79.77 20.82Q80.94 20.82 81.56 20.09Q82.19 19.36 82.20 17.99L82.20 17.99L82.20 17.52Q82.20 16.13 81.59 15.40Q80.99 14.66 79.84 14.66L79.84 14.66L78.81 14.66Z" fill="#FFFFFF"/><path class="svg__text" d="M112.75 22L110.42 22L110.42 13.60L112.37 13.60L116.08 18.07L116.08 13.60L118.41 13.60L118.41 22L116.46 22L112.75 17.52L112.75 22ZM123.14 17.80L123.14 17.80Q123.14 16.55 123.75 15.55Q124.35 14.56 125.41 14.00Q126.48 13.43 127.81 13.43L127.81 13.43Q129.14 13.43 130.20 14.00Q131.27 14.56 131.87 15.55Q132.48 16.55 132.48 17.80L132.48 17.80Q132.48 19.05 131.87 20.04Q131.27 21.04 130.20 21.60Q129.14 22.17 127.81 22.17L127.81 22.17Q126.48 22.17 125.41 21.60Q124.35 21.04 123.75 20.04Q123.14 19.05 123.14 17.80ZM125.54 17.80L125.54 17.80Q125.54 18.51 125.84 19.05Q126.14 19.60 126.66 19.90Q127.18 20.20 127.81 20.20L127.81 20.20Q128.45 20.20 128.96 19.90Q129.48 19.60 129.78 19.05Q130.08 18.51 130.08 17.80L130.08 17.80Q130.08 17.09 129.78 16.54Q129.48 16 128.96 15.70Q128.45 15.40 127.81 15.40L127.81 15.40Q127.17 15.40 126.66 15.70Q126.14 16 125.84 16.54Q125.54 17.09 125.54 17.80ZM139.00 15.48L136.42 15.48L136.42 13.60L143.94 13.60L143.94 15.48L141.37 15.48L141.37 22L139.00 22L139.00 15.48ZM156.70 22L154.28 22L157.98 13.60L160.33 13.60L164.04 22L161.58 22L160.91 20.37L157.36 20.37L156.70 22ZM159.14 15.93L158.05 18.61L160.22 18.61L159.14 15.93ZM177.55 22L175.17 22L175.17 13.60L179.01 13.60Q180.16 13.60 180.99 13.98Q181.83 14.35 182.29 15.06Q182.75 15.76 182.75 16.71L182.75 16.71Q182.75 17.62 182.32 18.30Q181.89 18.98 181.10 19.36L181.10 19.36L182.91 22L180.37 22L178.84 19.77L177.55 19.77L177.55 22ZM177.55 15.47L177.55 17.93L178.87 17.93Q179.60 17.93 179.97 17.61Q180.34 17.29 180.34 16.71L180.34 16.71Q180.34 16.12 179.97 15.79Q179.60 15.47 178.87 15.47L178.87 15.47L177.55 15.47ZM187.11 17.80L187.11 17.80Q187.11 16.55 187.71 15.55Q188.31 14.56 189.38 14.00Q190.44 13.43 191.77 13.43L191.77 13.43Q193.10 13.43 194.16 14.00Q195.23 14.56 195.83 15.55Q196.44 16.55 196.44 17.80L196.44 17.80Q196.44 19.05 195.83 20.04Q195.23 21.04 194.17 21.60Q193.11 22.17 191.77 22.17L191.77 22.17Q190.44 22.17 189.38 21.60Q188.31 21.04 187.71 20.04Q187.11 19.05 187.11 17.80ZM189.50 17.80L189.50 17.80Q189.50 18.51 189.80 19.05Q190.11 19.60 190.62 19.90Q191.14 20.20 191.77 20.20L191.77 20.20Q192.41 20.20 192.92 19.90Q193.44 19.60 193.74 19.05Q194.04 18.51 194.04 17.80L194.04 17.80Q194.04 17.09 193.74 16.54Q193.44 16 192.92 15.70Q192.41 15.40 191.77 15.40L191.77 15.40Q191.13 15.40 190.62 15.70Q190.11 16 189.80 16.54Q189.50 17.09 189.50 17.80ZM205.71 22L201.17 22L201.17 13.60L205.47 13.60Q207.07 13.60 207.91 14.19Q208.76 14.79 208.76 15.79L208.76 15.79Q208.76 16.39 208.46 16.87Q208.16 17.34 207.62 17.62L207.62 17.62Q208.35 17.87 208.75 18.41Q209.16 18.94 209.16 19.70L209.16 19.70Q209.16 20.80 208.27 21.40Q207.38 22 205.71 22L205.71 22ZM203.52 18.58L203.52 20.28L205.52 20.28Q206.76 20.28 206.76 19.43L206.76 19.43Q206.76 18.58 205.52 18.58L205.52 18.58L203.52 18.58ZM203.52 15.31L203.52 16.94L205.15 16.94Q206.35 16.94 206.35 16.12L206.35 16.12Q206.35 15.31 205.15 15.31L205.15 15.31L203.52 15.31ZM213.45 17.80L213.45 17.80Q213.45 16.55 214.05 15.55Q214.66 14.56 215.72 14.00Q216.78 13.43 218.11 13.43L218.11 13.43Q219.44 13.43 220.51 14.00Q221.57 14.56 222.18 15.55Q222.78 16.55 222.78 17.80L222.78 17.80Q222.78 19.05 222.18 20.04Q221.57 21.04 220.51 21.60Q219.45 22.17 218.11 22.17L218.11 22.17Q216.78 22.17 215.72 21.60Q214.66 21.04 214.05 20.04Q213.45 19.05 213.45 17.80ZM215.85 17.80L215.85 17.80Q215.85 18.51 216.15 19.05Q216.45 19.60 216.96 19.90Q217.48 20.20 218.11 20.20L218.11 20.20Q218.75 20.20 219.27 19.90Q219.78 19.60 220.08 19.05Q220.38 18.51 220.38 17.80L220.38 17.80Q220.38 17.09 220.08 16.54Q219.78 16 219.27 15.70Q218.75 15.40 218.11 15.40L218.11 15.40Q217.47 15.40 216.96 15.70Q216.45 16 216.15 16.54Q215.85 17.09 215.85 17.80ZM229.30 15.48L226.72 15.48L226.72 13.60L234.24 13.60L234.24 15.48L231.68 15.48L231.68 22L229.30 22L229.30 15.48Z" fill="#FFFFFF" x="109.22999999999999"/></svg>