<?xml version="1.0" encoding="iso-8859-1"?>
<!-- Generator: Adobe Illustrator 17.1.0, SVG Export Plug-In . SVG Version: 6.00 Build 0)  -->
<!DOCTYPE svg PUBLIC "-//W3C//DTD SVG 1.1//EN" "http://www.w3.org/Graphics/SVG/1.1/DTD/svg11.dtd">
<svg version="1.1" id="Capa_1" xmlns="http://www.w3.org/2000/svg" xmlns:xlink="http://www.w3.org/1999/xlink" x="0px" y="0px"
	 viewBox="0 0 460 460" style="enable-background:new 0 0 460 460;" xml:space="preserve">
<g>
	<path d="M457.071,87.064L372.936,2.929c-3.906-3.904-10.236-3.904-14.143,0c-3.86,3.86-3.898,10.088-0.126,14.003L337.979,37.62
		c-3.905,3.905-3.905,10.237,0,14.143l14.181,14.181l-44.288,44.289L293.69,96.051c-3.906-3.904-10.236-3.904-14.143,0
		c-3.905,3.905-3.905,10.237,0,14.143l70.259,70.259c1.953,1.952,4.512,2.929,7.071,2.929s5.118-0.977,7.071-2.929
		c3.905-3.905,3.905-10.237,0-14.143l-14.182-14.182l44.289-44.288l14.181,14.181c1.953,1.952,4.512,2.929,7.071,2.929
		s5.118-0.977,7.071-2.929l20.688-20.688c1.935,1.864,4.431,2.803,6.932,2.803c2.56,0,5.118-0.977,7.071-2.929
		C460.977,97.302,460.977,90.97,457.071,87.064z M335.625,137.985l-13.61-13.61l44.288-44.289l13.611,13.611L335.625,137.985z
		 M415.309,100.808l-56.116-56.116l13.61-13.61l56.116,56.116L415.309,100.808z"/>
	<path d="M210.43,179.31l-22.203-22.202c-3.905-3.904-10.237-3.904-14.142,0L106.993,224.2c-1.875,1.876-2.929,4.419-2.929,7.071
		s1.054,5.196,2.929,7.071l15.131,15.131l-52.949,52.949l-6.806-6.806c-1.875-1.875-4.419-2.929-7.071-2.929
		s-5.196,1.054-7.071,2.929l-38.36,38.361c-3.905,3.905-3.905,10.237,0,14.143l6.805,6.805L2.929,372.67
		c-3.905,3.905-3.905,10.237,0,14.143l70.259,70.259c1.875,1.875,4.419,2.929,7.071,2.929s5.196-1.054,7.071-2.929l13.744-13.744
		l6.806,6.806c1.953,1.952,4.512,2.929,7.071,2.929s5.119-0.977,7.071-2.929l38.36-38.36c3.905-3.905,3.905-10.237,0-14.143
		l-6.805-6.806L280.69,263.712c1.875-1.876,2.929-4.419,2.929-7.071s-1.054-5.195-2.929-7.071L210.43,179.31z M128.207,231.271
		l52.95-52.95l8.06,8.061l-52.95,52.95L128.207,231.271z M106.498,372.03L82.28,396.248L63.751,377.72l24.219-24.218L106.498,372.03
		z M55.299,320.831l18.529,18.528l-24.219,24.218L37.89,351.859c-0.001-0.001-0.003-0.003-0.004-0.004s-0.003-0.002-0.004-0.004
		l-6.801-6.801L55.299,320.831z M80.259,435.857l-56.117-56.116l6.673-6.673l56.116,56.116L80.259,435.857z M114.951,428.919
		l-18.529-18.528l24.218-24.218l18.529,18.529L114.951,428.919z M139.434,376.682l-11.719-11.719
		c-0.001-0.001-0.002-0.002-0.003-0.003s-0.002-0.002-0.003-0.003L95.043,332.29c0,0-0.001-0.001-0.001-0.002
		c0,0-0.001-0.001-0.002-0.001l-11.721-11.721l60.018-60.018c0.001-0.001,0.002-0.001,0.003-0.002s0.002-0.002,0.002-0.003
		l60.018-60.018l56.117,56.116L139.434,376.682z"/>
	<path d="M231.245,158.496c-3.904-3.903-10.236-3.904-14.142,0c-3.905,3.905-3.905,10.237,0,14.143l70.258,70.259
		c1.953,1.952,4.512,2.929,7.071,2.929c2.559,0,5.118-0.977,7.071-2.929c3.905-3.905,3.905-10.237,0-14.143L231.245,158.496z"/>
	<path d="M252.061,137.681c-3.906-3.904-10.236-3.904-14.143,0c-3.905,3.905-3.905,10.237,0,14.143l70.259,70.259
		c1.953,1.952,4.512,2.929,7.071,2.929s5.118-0.977,7.071-2.929c3.905-3.905,3.905-10.237,0-14.143L252.061,137.681z"/>
	<path d="M272.875,116.865c-3.906-3.904-10.236-3.904-14.143,0c-3.905,3.905-3.905,10.237,0,14.143l70.26,70.26
		c1.953,1.952,4.512,2.929,7.071,2.929s5.118-0.977,7.071-2.929c3.905-3.905,3.905-10.237,0-14.143L272.875,116.865z"/>
</g>
<g>
</g>
<g>
</g>
<g>
</g>
<g>
</g>
<g>
</g>
<g>
</g>
<g>
</g>
<g>
</g>
<g>
</g>
<g>
</g>
<g>
</g>
<g>
</g>
<g>
</g>
<g>
</g>
<g>
</g>
</svg>
