<?xml version="1.0" encoding="iso-8859-1"?>
<!-- Generator: Adobe Illustrator 19.0.0, SVG Export Plug-In . SVG Version: 6.00 Build 0)  -->
<svg version="1.1" id="Layer_1" xmlns="http://www.w3.org/2000/svg" xmlns:xlink="http://www.w3.org/1999/xlink" x="0px" y="0px"
	 viewBox="0 0 512 512" style="enable-background:new 0 0 512 512;" xml:space="preserve">
<g>
	<g>
		<path d="M477.867,369.778V39.822H34.133v329.956H0v102.4h512v-102.4H477.867z M443.733,73.956v145.185
			c-7.9-5.299-17.35-8.445-27.514-8.628L370.702,73.956H443.733z M432.356,261.689c0,9.411-7.656,17.067-17.067,17.067
			c-9.411,0-17.067-7.656-17.067-17.067c0-9.411,7.656-17.067,17.067-17.067C424.699,244.622,432.356,252.278,432.356,261.689z
			 M290.133,267.378c9.411,0,17.067,7.656,17.067,17.067c0,9.411-7.656,17.067-17.067,17.067c-9.411,0-17.067-7.656-17.067-17.067
			C273.067,275.034,280.723,267.378,290.133,267.378z M238.933,73.956h34.133V236.18c-6.358,2.255-12.14,5.728-17.067,10.143
			c-4.927-4.416-10.709-7.888-17.067-10.143V73.956z M221.867,267.378c9.411,0,17.067,7.656,17.067,17.067
			c0,9.411-7.656,17.067-17.067,17.067c-9.411,0-17.067-7.656-17.067-17.067C204.8,275.034,212.456,267.378,221.867,267.378z
			 M170.667,73.956H204.8V236.18c-6.358,2.255-12.14,5.728-17.067,10.143c-4.927-4.416-10.709-7.888-17.067-10.143V73.956z
			 M153.6,267.378c9.411,0,17.067,7.656,17.067,17.067c0,9.411-7.656,17.067-17.067,17.067c-9.411,0-17.067-7.656-17.067-17.067
			C136.533,275.034,144.189,267.378,153.6,267.378z M68.267,73.956h68.267V236.18c-19.864,7.045-34.133,26.015-34.133,48.265
			c0,28.232,22.968,51.2,51.2,51.2c13.104,0,25.068-4.954,34.133-13.079c9.066,8.126,21.03,13.079,34.133,13.079
			c13.104,0,25.068-4.954,34.133-13.079c9.066,8.126,21.03,13.079,34.133,13.079c28.232,0,51.2-22.968,51.2-51.2
			c0-22.249-14.269-41.219-34.133-48.265V73.956h27.521l49.124,147.371c-12.01,9.379-19.755,23.979-19.755,40.363
			c0,28.232,22.968,51.2,51.2,51.2c10.518,0,20.302-3.191,28.444-8.652v65.541H68.267V73.956z M477.867,438.044H34.133v-34.133
			h443.733V438.044z"/>
	</g>
</g>
<g>
</g>
<g>
</g>
<g>
</g>
<g>
</g>
<g>
</g>
<g>
</g>
<g>
</g>
<g>
</g>
<g>
</g>
<g>
</g>
<g>
</g>
<g>
</g>
<g>
</g>
<g>
</g>
<g>
</g>
</svg>
